<svg width="32" height="32" viewBox="0 0 32 32" fill="none" xmlns="http://www.w3.org/2000/svg">
<mask id="mask0_274_329" style="mask-type:alpha" maskUnits="userSpaceOnUse" x="-1" y="0" width="34" height="33">
<path d="M16.542 31.8187L17.0512 31.3095C17.3883 30.9724 17.3883 30.4272 17.0512 30.0901L4.24799 17.2941L31.2101 17.2941C31.6835 17.2941 32.0708 16.9067 32.0708 16.4333L32.0708 15.7161C32.0708 15.2427 31.6835 14.8554 31.2101 14.8554L4.24799 14.8554L17.0512 2.05213C17.3883 1.71501 17.3883 1.16989 17.0512 0.832775L16.542 0.323515C16.2048 -0.0136009 15.6597 -0.0136009 15.3226 0.323515L0.181085 15.4579C-0.156031 15.795 -0.156031 16.3401 0.181085 16.6772L15.3226 31.8116C15.6669 32.1558 16.2048 32.1558 16.542 31.8187Z" fill="white"/>
</mask>
<g mask="url(#mask0_274_329)">
<rect x="32" width="32" height="32" transform="rotate(90 32 0)" fill="white"/>
</g>
</svg>
