<svg width="31" height="25" viewBox="0 0 31 25" fill="none" xmlns="http://www.w3.org/2000/svg">
<path id="twitter" d="M27.8135 6.23045C27.8332 6.50387 27.8332 6.77735 27.8332 7.05078C27.8332 15.3906 21.4405 25 9.75638 25C6.15673 25 2.81284 23.9648 0 22.168C0.511441 22.2266 1.00314 22.2461 1.53426 22.2461C4.5044 22.2461 7.23859 21.25 9.42198 19.5508C6.62882 19.4922 4.28807 17.6758 3.48158 15.1758C3.87502 15.2343 4.26839 15.2734 4.6815 15.2734C5.25192 15.2734 5.82239 15.1953 6.35345 15.0586C3.44229 14.4726 1.25883 11.9336 1.25883 8.86718V8.78908C2.10462 9.25783 3.08821 9.5508 4.13065 9.58982C2.41934 8.45698 1.29819 6.52341 1.29819 4.33589C1.29819 3.16404 1.61285 2.08982 2.16365 1.15231C5.29121 4.98044 9.99239 7.48039 15.2639 7.75388C15.1656 7.28513 15.1066 6.79689 15.1066 6.3086C15.1066 2.832 17.9391 0 21.46 0C23.2893 0 24.9416 0.761717 26.1022 1.99219C27.538 1.71876 28.9149 1.19139 30.1345 0.468753C29.6624 1.93363 28.6593 3.1641 27.3414 3.9453C28.62 3.80864 29.8592 3.457 31 2.96877C30.1347 4.21872 29.0527 5.33196 27.8135 6.23045Z" fill="white"/>
</svg>
