<svg width="29" height="29" viewBox="0 0 29 29" fill="none" xmlns="http://www.w3.org/2000/svg">
<path id="whatsapp" fill-rule="evenodd" clip-rule="evenodd" d="M24.6565 4.21406C21.9442 1.49531 18.3321 0 14.4935 0C6.57031 0 0.122991 6.44732 0.122991 14.3705C0.122991 16.9016 0.783259 19.3743 2.03906 21.5558L0 29L7.61897 26.9998C9.7163 28.1455 12.079 28.7475 14.4871 28.7475H14.4935C22.4103 28.7475 29 22.3002 29 14.377C29 10.5384 27.3687 6.93281 24.6565 4.21406ZM14.4935 26.3266C12.3444 26.3266 10.2406 25.7504 8.4087 24.6629L7.975 24.404L3.4567 25.5886L4.66071 21.1804L4.37589 20.7272C3.17835 18.8241 2.55045 16.6297 2.55045 14.3705C2.55045 7.78728 7.91027 2.42746 14.5 2.42746C17.6913 2.42746 20.6884 3.67031 22.9411 5.92946C25.1938 8.18862 26.579 11.1857 26.5725 14.377C26.5725 20.9667 21.0768 26.3266 14.4935 26.3266ZM18.5911 16.2154C18.9212 16.3319 20.6884 17.1993 21.0444 17.3806C21.1027 17.4092 21.1579 17.4356 21.2098 17.4604C21.4747 17.5869 21.6537 17.6725 21.7241 17.8078C21.8147 17.9567 21.8147 18.6752 21.517 19.5167C21.2192 20.3583 19.7886 21.1221 19.096 21.2257C17.9567 21.394 17.0634 21.3098 14.7848 20.3259C11.4273 18.8732 9.15871 15.6298 8.71611 14.9971C8.68342 14.9503 8.66068 14.9178 8.64821 14.9013C8.64368 14.8951 8.63839 14.8879 8.6324 14.8797C8.40744 14.5731 7.18527 12.907 7.18527 11.1857C7.18527 9.53478 7.99315 8.66913 8.36862 8.26682C8.39506 8.23849 8.41935 8.21246 8.44107 8.18862C8.77121 7.83259 9.1596 7.74196 9.39911 7.74196C9.63862 7.74196 9.87813 7.74196 10.0853 7.75491C10.112 7.75648 10.1398 7.75643 10.1686 7.75638C10.3775 7.75602 10.6385 7.75556 10.8944 8.36987C10.9824 8.58211 11.107 8.88585 11.2414 9.21319C11.5619 9.99402 11.9375 10.9091 12.0013 11.0368C12.092 11.2181 12.1502 11.4252 12.0337 11.6647C11.7285 12.2751 11.4131 12.605 11.1894 12.839C10.9101 13.1312 10.7737 13.2739 10.9786 13.6261C12.3703 16.0147 13.7556 16.8433 15.8658 17.8984C16.2219 18.0797 16.4355 18.0473 16.6426 17.8078C16.8563 17.5618 17.5424 16.7592 17.7819 16.3967C18.0214 16.0342 18.2609 16.0924 18.5911 16.2154Z" fill="white"/>
</svg>
